<svg width="34" height="31" viewBox="0 0 34 31" fill="none" xmlns="http://www.w3.org/2000/svg">
<path fill-rule="evenodd" clip-rule="evenodd" d="M22.5652 23.9565H26.0435C29.8696 23.9565 33 20.8261 33 17C33 13.1739 29.8696 10.0435 26.0435 10.0435C25.8348 5.03481 21.6609 1.13916 16.6522 1.34785C11.6435 1.55655 7.74783 5.73046 7.95652 10.7392V12.1305H6.91304C3.78261 12.1305 1.2087 14.5652 1 17.6957V23.9565H11.4348" fill="white"/>
<path fill-rule="evenodd" clip-rule="evenodd" d="M26.964 9.09697L26.9384 8.90559C26.1867 3.87705 21.7919 0.132775 16.6105 0.348665L16.3331 0.363932C10.8983 0.735936 6.72993 5.3218 6.95739 10.7807L6.957 11.13L6.67567 11.1344C3.12934 11.2543 0.240823 14.05 0.00221484 17.6291L0 23.9565L0.00672773 24.0731C0.0644928 24.5705 0.487164 24.9565 1 24.9565H11.4348V22.9565L2 22.956V17.6956L2.01952 17.4788C2.29472 15.037 4.38948 13.1304 6.91304 13.1304H7.95652L8.07314 13.1237C8.57048 13.0659 8.95652 12.6432 8.95652 12.1304V10.7391L8.94991 10.4907C8.89874 6.11702 12.3066 2.52973 16.6938 2.34693C21.1377 2.16177 24.8581 5.61509 25.0443 10.0851C25.0667 10.6207 25.5074 11.0435 26.0435 11.0435C29.3173 11.0435 32 13.7262 32 17C32 20.2738 29.3173 22.9565 26.0435 22.9565H22.5652V24.9565H26.0435L26.2904 24.9527C30.5556 24.8212 34 21.2957 34 17L33.9962 16.753C33.8748 12.8159 30.8615 9.57821 27.0199 9.1034L26.964 9.09697ZM17.7071 13.1624L17.6129 13.0792C17.2206 12.7742 16.6534 12.8019 16.2929 13.1624L10.7277 18.7276L12.1419 20.1419L15.9997 16.2825L16 30.913H18L17.9997 16.2825L21.8581 20.1419L23.2723 18.7276L17.7071 13.1624Z" fill="#3B3A40"/>
</svg>
