<svg width="33" height="34" viewBox="0 0 33 34" fill="none" xmlns="http://www.w3.org/2000/svg">
<path fill-rule="evenodd" clip-rule="evenodd" d="M16.3044 33C20.1463 33 23.2609 25.8366 23.2609 17C23.2609 8.16344 20.1463 1 16.3044 1C12.4624 1 9.34784 8.16344 9.34784 17C9.34784 25.8366 12.4624 33 16.3044 33Z" fill="white"/>
<path fill-rule="evenodd" clip-rule="evenodd" d="M16.3043 0C18.9037 0 21.0958 2.42564 22.5166 6.20824C26.6371 5.52941 29.9618 6.21949 31.2899 8.49613C32.6128 10.764 31.6009 13.8783 28.9923 17.0025C31.629 20.1405 32.6474 23.2572 31.282 25.5171C29.9167 27.777 26.6266 28.4515 22.5282 27.7627C21.107 31.5619 18.9103 34 16.3043 34C13.6972 34 11.4998 31.5598 10.0793 27.7577C5.94964 28.454 2.62552 27.782 1.25713 25.5171C-0.112206 23.2506 0.916085 20.1223 3.56786 16.9755C0.965004 13.8596 -0.0637735 10.7471 1.24926 8.49613C2.57936 6.21596 5.92209 5.54312 10.0773 6.24529C11.4982 2.44191 13.6963 0 16.3043 0ZM16.3018 25.8996L15.9957 26.0254C14.6501 26.5711 13.3293 27.0094 12.0616 27.3345C13.1781 30.2149 14.7188 32 16.3043 32C17.8892 32 19.4292 30.2165 20.5462 27.339C19.3775 27.0392 18.1625 26.642 16.9233 26.1522L16.3018 25.8996ZM4.79123 18.6412L4.93274 18.4664C6.00131 19.5382 7.24387 20.5941 8.62846 21.5977C8.8171 23.1015 9.09725 24.5229 9.45888 25.8292C6.26051 26.3308 3.81891 25.8897 2.96896 24.4829C2.16268 23.1483 2.89991 20.9934 4.79123 18.6412ZM27.6276 18.4932C26.5682 19.5535 25.3458 20.5932 23.982 21.5858C23.7929 23.0954 23.5118 24.5223 23.1497 25.8338C26.3145 26.3276 28.7235 25.8843 29.5702 24.4829C30.3933 23.1204 29.6077 20.9028 27.6276 18.4932ZM21.402 23.3019L21.7161 23.1086L21.597 23.7123C21.4726 24.3084 21.3327 24.8816 21.1791 25.4287C20.4265 25.2391 19.6453 25.0047 18.8436 24.7254C19.343 24.4719 19.8431 24.2046 20.3424 23.9237C20.7019 23.7202 21.0552 23.5128 21.402 23.3019ZM10.8938 23.1145L10.9094 23.1981C11.0573 23.9784 11.2315 24.7224 11.4283 25.4234C12.1796 25.2349 12.9599 25.0014 13.7597 24.7238C13.2625 24.4704 12.7641 24.2038 12.2663 23.9237C11.7985 23.6606 11.3408 23.3906 10.8938 23.1145ZM15.9714 10.3835L16.2469 10.2595C17.1598 10.6619 18.0848 11.1168 19.0103 11.6242L19.356 11.8161L19.9289 12.1501C20.6843 12.5995 21.4063 13.0646 22.0914 13.5401C22.2017 14.6493 22.2609 15.8074 22.2609 17C22.2609 18.1969 22.2013 19.3591 22.09 20.4719C21.2356 21.0626 20.3232 21.6361 19.3594 22.182C18.3355 22.7579 17.3119 23.2698 16.3038 23.7182C15.2965 23.2702 14.2725 22.7575 13.2468 22.1806C12.286 21.6402 11.3746 21.0699 10.5194 20.4809C10.4077 19.3653 10.3478 18.2001 10.3478 17C10.3478 15.7888 10.4088 14.613 10.5224 13.4886C11.357 12.9123 12.246 12.3516 13.1831 11.8161C14.1143 11.2839 15.0479 10.8064 15.9714 10.3835ZM8.39532 15.0835L8.17155 15.2675C7.48715 15.8363 6.85733 16.4105 6.28726 16.9817C6.91816 17.6177 7.62257 18.2567 8.39281 18.8863C8.36338 18.2667 8.34783 17.6372 8.34783 17C8.34783 16.3525 8.36388 15.713 8.39532 15.0835ZM24.2295 15.4399L24.2165 15.1427L24.6606 15.5142C25.2424 16.0104 25.7821 16.5096 26.2763 17.0062C25.6585 17.6291 24.9695 18.255 24.2155 18.8736C24.2455 18.2579 24.2609 17.6328 24.2609 17C24.2609 16.4743 24.2503 15.9539 24.2295 15.4399ZM16.3043 15.6087C17.0727 15.6087 17.6957 16.2316 17.6957 17C17.6957 17.7684 17.0727 18.3913 16.3043 18.3913C15.536 18.3913 14.913 17.7684 14.913 17C14.913 16.2316 15.536 15.6087 16.3043 15.6087ZM23.9834 12.4273C23.7931 10.9017 23.5087 9.46045 23.1413 8.13687C26.3174 7.65168 28.7445 8.10198 29.5623 9.50387C30.3683 10.8856 29.5891 13.1101 27.6249 15.5156C26.5709 14.463 25.3471 13.4229 23.9834 12.4273ZM2.97682 9.50387C2.18032 10.8693 2.97515 13.0911 4.93765 15.4903C6.00665 14.4267 7.24803 13.376 8.63236 12.3715C8.8128 10.9436 9.07575 9.59048 9.4118 8.33951L9.45642 8.17422C6.24337 7.66737 3.79412 8.10279 2.97682 9.50387ZM20.9782 8.5843L21.1691 8.53629C21.3786 9.27755 21.5627 10.0672 21.7164 10.8974C21.3823 10.6886 21.0419 10.4829 20.6958 10.2805L20.3424 10.0763L19.8251 9.79032C19.4801 9.60296 19.1347 9.42214 18.7895 9.24806C19.5377 8.98784 20.2698 8.76654 20.9782 8.5843ZM11.4263 8.58045C11.2257 9.29948 11.0496 10.0554 10.9006 10.8486C11.3211 10.5873 11.7514 10.3307 12.1908 10.0796C12.6938 9.79214 13.1983 9.51886 13.7027 9.26002C13.1177 9.05905 12.5431 8.88127 11.9823 8.72694L11.4263 8.58045ZM12.0595 6.66895C13.1767 3.78677 14.7181 2 16.3043 2C17.8828 2 19.4168 3.76917 20.5329 6.62606C19.1514 6.97673 17.7081 7.46272 16.2414 8.07733C14.8115 7.48578 13.4059 7.0141 12.0595 6.66895Z" fill="black"/>
</svg>
