<svg width="96" height="30" viewBox="0 0 96 30" fill="none" xmlns="http://www.w3.org/2000/svg">
<path fill-rule="evenodd" clip-rule="evenodd" d="M59.238 22.3922C53.6803 26.8624 45.6223 29.24 38.684 29.24C28.9593 29.24 20.2028 25.3225 13.5755 18.8008C13.0553 18.2888 13.5194 17.589 14.1447 17.9857C21.2946 22.5203 30.1357 25.2512 39.2677 25.2512C45.4278 25.2512 52.1996 23.8577 58.4303 20.9775C59.3699 20.5427 60.1578 21.6525 59.238 22.3922Z" fill="#64626A"/>
<path fill-rule="evenodd" clip-rule="evenodd" d="M61.8932 20.2612C61.1647 19.3934 57.0801 19.8499 55.2456 20.0541C54.6898 20.1162 54.6035 19.6648 55.1046 19.3371C58.3627 17.2071 63.7012 17.8224 64.3217 18.5349C64.9473 19.2545 64.1583 24.2362 61.1045 26.6135C60.6347 26.9794 60.1883 26.7845 60.3964 26.3011C61.0832 24.7045 62.6216 21.129 61.8932 20.2612Z" fill="#64626A"/>
<path fill-rule="evenodd" clip-rule="evenodd" d="M54.5404 3.5945V1.3755C54.5418 1.03776 54.8015 0.812599 55.114 0.813286L65.255 0.812256C65.579 0.812256 65.8394 1.04394 65.8401 1.37276L65.8394 3.27598C65.8369 3.59519 65.5629 4.01188 65.0758 4.67294L59.823 12.0288C61.7729 11.9842 63.8355 12.2701 65.6074 13.2469C66.0067 13.4669 66.1138 13.7937 66.1452 14.1132V16.4809C66.1452 16.8073 65.7813 17.1848 65.3988 16.9885C62.2772 15.3849 58.1351 15.2095 54.6839 17.0077C54.3311 17.192 53.9619 16.82 53.9619 16.4936V14.2426C53.9619 13.8826 53.9689 13.2665 54.3392 12.7173L60.4252 4.15432L55.1262 4.15329C54.8025 4.15329 54.5425 3.92675 54.5404 3.5945Z" fill="#64626A"/>
<path fill-rule="evenodd" clip-rule="evenodd" d="M20.0112 17.0567H17.1175C16.8421 17.0386 16.6218 16.8308 16.5999 16.5659L16.6018 1.66301C16.6018 1.36494 16.8516 1.12647 17.1602 1.12647L19.8553 1.12581C20.1373 1.14031 20.3638 1.3544 20.3815 1.62612V3.57203H20.4357C21.1382 1.69035 22.4618 0.812256 24.2446 0.812256C26.0547 0.812256 27.1892 1.69035 27.9997 3.57203C28.7019 1.69035 30.2957 0.812256 31.9977 0.812256C33.2133 0.812256 34.5369 1.31388 35.3474 2.44296C36.2659 3.69719 36.0772 5.51629 36.0772 7.11571L36.0749 16.5202C36.0749 16.8179 35.8247 17.0567 35.5168 17.0567H32.6261C32.3355 17.0379 32.1064 16.807 32.1064 16.5215L32.1057 8.62092C32.1057 7.9938 32.1599 6.42568 32.0247 5.82985C31.8087 4.82627 31.1603 4.544 30.3229 4.544C29.6207 4.544 28.891 5.01434 28.5939 5.76727C28.2968 6.51988 28.3241 7.77411 28.3241 8.62092V16.5202C28.3241 16.8179 28.0739 17.0567 27.7657 17.0567H24.8752C24.5847 17.0379 24.3556 16.807 24.3556 16.5215L24.3526 8.62092C24.3526 6.95893 24.6228 4.51271 22.5698 4.51271C20.4895 4.51271 20.5706 6.89602 20.5706 8.62092L20.5696 16.5202C20.57 16.8179 20.3198 17.0567 20.0112 17.0567Z" fill="#64626A"/>
<path fill-rule="evenodd" clip-rule="evenodd" d="M75.0532 3.1336C72.9404 3.1336 72.8069 6.13759 72.8069 8.0111C72.8069 9.88495 72.7802 13.8908 75.0265 13.8908C77.2462 13.8908 77.3527 10.6602 77.3527 8.68966C77.3527 7.39768 77.2995 5.84717 76.9251 4.61931C76.6038 3.55329 75.962 3.1336 75.0532 3.1336ZM75.0265 0C79.2783 0 81.5776 3.81182 81.5776 8.65743C81.5776 13.3412 79.0379 17.0567 75.0265 17.0567C70.855 17.0567 68.582 13.2445 68.582 8.49593C68.582 3.71479 70.8816 0 75.0265 0Z" fill="#64626A"/>
<path fill-rule="evenodd" clip-rule="evenodd" d="M86.6942 17.0567H83.7389C83.4418 17.0379 83.2066 16.807 83.2066 16.5215L83.2019 1.61295C83.2268 1.34056 83.4728 1.12647 83.7716 1.12647L86.5232 1.12581C86.782 1.13866 86.9956 1.31191 87.0501 1.54312V3.82268H87.106C87.9367 1.78422 89.0993 0.812256 91.1484 0.812256C92.4771 0.812256 93.7789 1.28259 94.6097 2.56845C95.3852 3.7601 95.3852 5.76727 95.3852 7.20958V16.587C95.3516 16.8515 95.1097 17.0567 94.8166 17.0567H91.8429C91.5683 17.0392 91.3469 16.842 91.3146 16.587V8.49543C91.3146 6.86473 91.5084 4.48142 89.4593 4.48142C88.7392 4.48142 88.0747 4.95176 87.7429 5.67307C87.3277 6.58246 87.2719 7.49185 87.2719 8.49543V16.5202C87.2665 16.8179 87.0101 17.0567 86.6942 17.0567Z" fill="#64626A"/>
<path fill-rule="evenodd" clip-rule="evenodd" d="M50.6222 16.6577C50.4271 16.8326 50.1461 16.8443 49.9262 16.7263C48.9478 15.9122 48.7724 15.536 48.2378 14.7614C46.6205 16.4102 45.4751 16.9045 43.381 16.9045C40.901 16.9045 38.9717 15.3728 38.9717 12.3092C38.9717 9.91563 40.2668 8.28822 42.1133 7.49024C43.7115 6.7879 45.9439 6.66048 47.6524 6.46884V6.08591C47.6524 5.38391 47.7075 4.55415 47.2942 3.9478C46.9356 3.40533 46.247 3.18192 45.6405 3.18192C44.5171 3.18192 43.5184 3.75817 43.2728 4.95247C43.222 5.21802 43.0282 5.4809 42.7612 5.49427L39.9059 5.18525C39.665 5.13073 39.397 4.93709 39.4665 4.56886C40.1228 1.10168 43.2507 0.0541992 46.0542 0.0541992C47.487 0.0541992 49.3608 0.437138 50.4906 1.52241C51.9237 2.86286 51.7857 4.6498 51.7857 6.5966V11.1902C51.7857 12.5718 52.3594 13.1781 52.8977 13.9226C53.0858 14.1908 53.1283 14.5099 52.888 14.7059C52.2862 15.2106 51.2173 16.1403 50.6289 16.664L50.6222 16.6577ZM47.6524 9.46881C47.6524 10.618 47.6798 11.5751 47.101 12.5965C46.6326 13.4263 45.8888 13.9367 45.0618 13.9367C43.932 13.9367 43.2708 13.0748 43.2708 11.7986C43.2708 9.28754 45.5212 8.83069 47.6524 8.83069V9.46881Z" fill="#64626A"/>
<path fill-rule="evenodd" clip-rule="evenodd" d="M12.0057 16.6577C11.8105 16.8326 11.5292 16.8443 11.3096 16.7263C10.3309 15.9122 10.1559 15.536 9.62089 14.7614C8.00431 16.4102 6.85888 16.9045 4.76447 16.9045C2.28414 16.9045 0.355469 15.3728 0.355469 12.3092C0.355469 9.91563 1.6506 8.28822 3.49674 7.49024C5.09527 6.7879 7.32734 6.66048 9.03581 6.46884V6.08591C9.03581 5.38391 9.09094 4.55415 8.67761 3.9478C8.31941 3.40533 7.63008 3.18192 7.02428 3.18192C5.90089 3.18192 4.90147 3.75817 4.65655 4.95247C4.60542 5.21802 4.41195 5.4809 4.14464 5.49427L1.28973 5.18525C1.04848 5.13073 0.780163 4.93709 0.849999 4.56886C1.50592 1.10168 4.63416 0.0541992 7.43728 0.0541992C8.87041 0.0541992 10.7443 0.437138 11.8743 1.52241C13.3071 2.86286 13.1695 4.6498 13.1695 6.5966V11.1902C13.1695 12.5718 13.7425 13.1781 14.2812 13.9226C14.469 14.1908 14.5114 14.5099 14.2715 14.7059C13.67 15.2106 12.6004 16.1403 12.0127 16.664L12.0057 16.6577ZM9.03581 9.46881C9.03581 10.618 9.06355 11.5751 8.48448 12.5965C8.01634 13.4263 7.27221 13.9367 6.44554 13.9367C5.31581 13.9367 4.65421 13.0748 4.65421 11.7986C4.65421 9.28754 6.90499 8.83069 9.03581 8.83069V9.46881Z" fill="#64626A"/>
</svg>
