<svg width="131" height="31" viewBox="0 0 131 31" fill="none" xmlns="http://www.w3.org/2000/svg">
<path fill-rule="evenodd" clip-rule="evenodd" d="M73.8627 20.4874C73.8627 20.7453 73.8385 21.0129 73.7712 21.2445C73.4868 22.2129 72.509 23.0332 71.2885 23.0332C70.272 23.0332 69.4603 22.4377 69.4603 21.1814C69.4603 19.2596 71.5196 18.7288 73.8627 18.7416V20.4874ZM77.5367 17.1393C77.5367 13.9687 76.2189 11.1801 71.769 11.1801C69.4851 11.1801 67.6701 11.8394 66.6806 12.4266L67.4046 14.9747C68.3092 14.3875 69.7513 13.9018 71.1152 13.9018C73.3734 13.8965 73.7427 15.2168 73.7427 16.0627V16.2627C68.8204 16.2544 65.7109 18.0062 65.7109 21.5761C65.7109 23.7565 67.2956 25.8001 70.0482 25.8001C71.7434 25.8001 73.1592 25.1046 74.0075 23.9918H74.093C74.093 23.9918 74.6539 26.4076 77.7509 25.485C77.5901 24.4783 77.5367 23.4039 77.5367 22.1137V17.1393Z" fill="#64626A"/>
<path fill-rule="evenodd" clip-rule="evenodd" d="M0.351074 7.73999C0.351074 7.73999 3.54245 20.7452 4.05196 22.8563C4.6464 25.3204 5.71769 26.2262 8.80672 25.6163L10.7991 17.5529C11.3049 15.5486 11.6432 14.1217 11.9676 12.0842H12.0249C12.2521 14.1426 12.578 15.5551 12.9939 17.5594C12.9939 17.5594 13.8046 21.2194 14.2205 23.1421C14.6378 25.0634 15.7962 26.276 18.8214 25.6163L23.5711 7.73999H19.7366L18.1152 15.4685C17.6783 17.7175 17.2849 19.4764 16.9786 21.5348H16.9249C16.6469 19.4966 16.2956 17.8084 15.8514 15.6172L14.1639 7.73999H10.1676L8.36325 15.418C7.85156 17.7514 7.37325 19.6359 7.06841 21.6228H7.01398C6.70188 19.7513 6.28599 17.3833 5.83817 15.1249C5.83817 15.1249 4.76398 9.63386 4.38801 7.73999" fill="#64626A"/>
<path fill-rule="evenodd" clip-rule="evenodd" d="M30.8607 20.4874C30.8607 20.7453 30.8395 21.0129 30.7693 21.2445C30.4848 22.2129 29.5086 23.0332 28.2882 23.0332C27.2695 23.0332 26.4608 22.4377 26.4608 21.1814C26.4608 19.2596 28.5185 18.7288 30.8607 18.7416V20.4874ZM34.5345 17.1393C34.5345 13.9687 33.2175 11.1801 28.7679 11.1801C26.482 11.1801 24.6692 11.8394 23.6784 12.4266L24.4038 14.9747C25.3083 14.3875 26.7489 13.9018 28.1141 13.9018C30.373 13.8965 30.7422 15.2168 30.7422 16.0627V16.2627C25.8195 16.2544 22.7109 18.0062 22.7109 21.5761C22.7109 23.7565 24.2941 25.8001 27.0465 25.8001C28.7401 25.8001 30.1572 25.1046 31.0062 23.9918H31.0888C31.0888 23.9918 31.6519 26.4076 34.7509 25.485C34.5871 24.4783 34.5345 23.4039 34.5345 22.1137V17.1393Z" fill="#64626A"/>
<path fill-rule="evenodd" clip-rule="evenodd" d="M40.7711 21.9649V7.73999H37.3311V25.8H40.7711" fill="#64626A"/>
<path fill-rule="evenodd" clip-rule="evenodd" d="M89.791 7.73999V20.8431C89.791 22.6465 90.1395 23.9135 90.8882 24.6871C91.5396 25.3619 92.6146 25.8 93.9027 25.8C95.0006 25.8 96.0793 25.5978 96.5855 25.4135L96.5376 22.5948C96.1604 22.6852 95.7242 22.7576 95.1295 22.7576C93.868 22.7576 93.4451 21.9717 93.4451 20.3491V15.3384H96.671V11.9397H93.4451V7.73999" fill="#64626A"/>
<path fill-rule="evenodd" clip-rule="evenodd" d="M80.3311 12.3438V25.8H84.0146V18.9092C84.0146 18.5375 84.038 18.2127 84.0949 17.9162C84.369 16.4727 85.4522 15.5513 87.0099 15.5513C87.4368 15.5513 87.7429 15.5976 88.0711 15.646V12.1232C87.7955 12.0654 87.6065 12.04 87.2606 12.04C85.8841 12.04 84.32 12.9426 83.6637 14.8816H83.5629V12.3438" fill="#64626A"/>
<path fill-rule="evenodd" clip-rule="evenodd" d="M43.3511 12.3438V25.8H47.1088V17.9083C47.1088 17.5387 47.1519 17.146 47.2857 16.8075C47.5978 16.0127 48.3574 15.0819 49.5689 15.0819C51.085 15.0819 51.7948 16.3287 51.7948 18.131V25.8H55.5481V17.8128C55.5481 17.4599 55.5979 17.0353 55.7056 16.7214C56.0133 15.8174 56.8316 15.0819 57.9598 15.0819C59.4976 15.0819 60.2348 16.3085 60.2348 18.4268V25.8H63.9911V17.875C63.9911 13.694 61.8097 12.04 59.3489 12.04C58.2579 12.04 57.3972 12.3055 56.6198 12.7705C55.965 13.1618 55.3801 13.7157 54.868 14.4462H54.813C54.2185 12.9961 52.8219 12.04 51.0011 12.04C48.6629 12.04 47.6127 13.1929 46.9735 14.1721H46.9178V12.3438" fill="#64626A"/>
<path fill-rule="evenodd" clip-rule="evenodd" d="M116.878 10.32C117.613 10.32 118.221 9.9465 118.303 9.46455L119.031 1.44299C119.031 0.650746 118.078 0 116.879 0C115.684 0 114.731 0.650746 114.731 1.44299L115.458 9.46455C115.538 9.9465 116.146 10.32 116.882 10.32" fill="#64626A"/>
<path fill-rule="evenodd" clip-rule="evenodd" d="M111.901 12.8831C112.255 12.2162 112.227 11.4645 111.853 11.1322L105.338 6.16861C104.661 5.74457 103.645 6.2565 103.067 7.34281C102.491 8.4268 102.591 9.63878 103.268 10.0644L110.481 13.7119C110.935 13.8946 111.549 13.5446 111.903 12.88" fill="#64626A"/>
<path fill-rule="evenodd" clip-rule="evenodd" d="M120.998 12.88C121.354 13.5445 121.966 13.8946 122.418 13.7119L129.634 10.0643C130.313 9.63873 130.41 8.42673 129.832 7.34272C129.256 6.25717 128.24 5.74447 127.562 6.16851L121.046 11.1321C120.674 11.4644 120.649 12.2161 121 12.883" fill="#64626A"/>
<path fill-rule="evenodd" clip-rule="evenodd" d="M116.878 20.64C117.613 20.64 118.221 21.0135 118.303 21.4953L119.031 29.5158C119.031 30.3079 118.078 30.96 116.879 30.96C115.684 30.96 114.731 30.3079 114.731 29.5158L115.458 21.4953C115.538 21.0135 116.146 20.64 116.882 20.64" fill="#64626A"/>
<path fill-rule="evenodd" clip-rule="evenodd" d="M120.998 17.2206C121.354 16.553 121.966 16.2061 122.418 16.388L129.634 20.0346C130.313 20.4609 130.41 21.6728 129.832 22.7583C129.256 23.8415 128.24 24.3557 127.562 23.9317L121.046 18.9684C120.674 18.6345 120.649 17.8837 121 17.2176" fill="#64626A"/>
<path fill-rule="evenodd" clip-rule="evenodd" d="M111.901 17.2186C112.255 17.8848 112.227 18.635 111.853 18.9696L105.338 23.9313C104.661 24.3554 103.645 23.8434 103.067 22.7601C102.491 21.6745 102.591 20.4608 103.268 20.0344L110.481 16.3889C110.935 16.2047 111.549 16.5532 111.903 17.2209" fill="#64626A"/>
</svg>
