<svg width="34" height="25" viewBox="0 0 34 25" fill="none" xmlns="http://www.w3.org/2000/svg">
<path fill-rule="evenodd" clip-rule="evenodd" d="M24.5339 23.8696H9.46609C6.92472 23.874 4.70316 22.1563 4.06783 19.6957L1 6.21739L5.30609 9.34783C6.51653 10.233 8.0449 10.5648 9.51341 10.2613C10.9819 9.95775 12.2535 9.04724 13.0139 7.75478L17 1L20.9791 7.7687C21.7418 9.06102 23.0158 9.97015 24.4859 10.2711C25.956 10.572 27.4848 10.2366 28.6939 9.34783L33 6.21739L29.9322 19.6957C29.2968 22.1563 27.0753 23.874 24.5339 23.8696Z" fill="white"/>
<path fill-rule="evenodd" clip-rule="evenodd" d="M24.5339 23.8696H9.46609C6.92472 23.874 4.70316 22.1563 4.06783 19.6957L1 6.21739L5.30609 9.34783C6.51653 10.233 8.0449 10.5648 9.51341 10.2613C10.9819 9.95775 12.2535 9.04724 13.0139 7.75478L17 1L20.9791 7.7687C21.7418 9.06102 23.0158 9.97015 24.4859 10.2711C25.956 10.572 27.4848 10.2366 28.6939 9.34783L33 6.21739L29.9322 19.6957C29.2968 22.1563 27.0753 23.874 24.5339 23.8696Z" stroke="black" stroke-width="2" stroke-linejoin="round"/>
</svg>
