<svg width="28" height="34" viewBox="0 0 28 34" fill="none" xmlns="http://www.w3.org/2000/svg">
<path fill-rule="evenodd" clip-rule="evenodd" d="M15.0723 1C9.08085 1.27234 4.31489 6.24255 4.38298 12.3021V13.8L2 20.8128L5.40426 21.6979V25.3745C5.40426 27.0085 6.76596 28.3021 8.4 28.3021H12.8255L14.2553 32.3872L24.6043 29.4596L23.1064 19.9277C25.2851 17.817 26.5106 14.9574 26.5106 11.8936C26.5106 5.83404 21.5404 1 15.4809 1C15.3447 1 15.2085 1 15.0723 1Z" fill="white"/>
<path fill-rule="evenodd" clip-rule="evenodd" d="M15.0724 0H15.4809C22.1152 0 27.5107 5.30366 27.5106 11.909L27.5048 12.277C27.4143 15.2144 26.285 17.9717 24.3128 20.1214L24.1721 20.269L25.7299 30.1804L13.6223 33.6056L12.1161 29.302L8.40005 29.3021C6.27397 29.3021 4.51395 27.6595 4.40924 25.5715L4.40431 25.3745L4.40405 22.47L0.707031 21.5098L3.38205 13.637L3.38339 12.0107C3.46714 5.67176 8.41698 0.459473 14.7256 0.0184134L15.0724 0ZM15.0841 2L14.8403 2.01532C9.49479 2.40237 5.32227 6.88832 5.38303 12.3021V13.9653L3.29205 20.115L6.40431 20.9246V25.3745C6.40431 26.4362 7.29814 27.3021 8.40005 27.3021H13.5351L14.8881 31.168L23.4781 28.738L22.038 19.5704L22.4106 19.2094C24.3251 17.3548 25.4238 14.8768 25.5054 12.2308L25.5107 11.8936C25.5107 6.41599 21.0182 2 15.4809 2H15.0841Z" fill="black"/>
</svg>
